# xmcd
#
# Track frame offsets:
# 150
# 13419
# 27384
# 37554
# 51650
# 63217
# 74964
# 89514
# 101239
# 114628
# 127006
# 139973
# 154886
# 169623
# 180540
# 192676
# 212285
# 224321
# 237489
# 250824
# 264405
# 275383
# 286146
# 298907
#
# Disc length: 4143 seconds
#
#
# Revision: 1
# Processed by: cddbd v1.5.1PL2 Copyright (c) Steve Scherf et al.
# Submitted via: FreeRIP 2.944 
#
DISCID=80102d18
DTITLE=Tonico e Tinoco - Dose Dupla
DYEAR=1900
DGENRE=Country
TTITLE0=Cana Verde
TTITLE1=Saudade de Matao
TTITLE2=Rio Grande
TTITLE3=Adeus Morena Adeus
TTITLE4=Princesa
TTITLE5=Aparecida do Norte
TTITLE6=Chico Mineiro
TTITLE7=Saudades de Ouro Preto
TTITLE8=Eu e a Lua
TTITLE9=Pe de Ipe
TTITLE10=Cabocla
TTITLE11=Tristeza do Jeca
TTITLE12=Amei
TTITLE13=Brasileiro
TTITLE14=Segura a Saia
TTITLE15=Joao Palhaco
TTITLE16=Gaucho Velho
TTITLE17=Sereno da Madrugada
TTITLE18=Rei do Gado
TTITLE19=Meu Sertão
TTITLE20=A Madastra
TTITLE21=Me Leva
TTITLE22=Carro de Boi
TTITLE23=Curitibana
EXTD=
EXTT0=
EXTT1=
EXTT2=
EXTT3=
EXTT4=
EXTT5=
EXTT6=
EXTT7=
EXTT8=
EXTT9=
EXTT10=
EXTT11=
EXTT12=
EXTT13=
EXTT14=
EXTT15=
EXTT16=
EXTT17=
EXTT18=
EXTT19=
EXTT20=
EXTT21=
EXTT22=
EXTT23=
PLAYORDER=
